<svg width="128" height="128" viewBox="0 0 128 128" fill="none" xmlns="http://www.w3.org/2000/svg">
<g filter="url(#filter0_d_118_48)">
<path d="M105.005 22.1788C105.283 22.1218 105.512 22.2445 105.64 22.3302C105.775 22.4213 105.906 22.5454 106.016 22.6534C106.138 22.7737 106.245 22.8849 106.373 23.005C106.624 23.2398 106.877 23.4318 107.158 23.5255C107.599 23.6724 108.019 23.721 108.39 23.7433C108.6 23.7559 108.722 23.7576 108.908 23.7677C109.057 23.7757 109.233 23.7889 109.385 23.8311C109.533 23.8725 109.787 23.9778 109.898 24.2638C109.998 24.5207 109.917 24.7699 109.85 24.9249C109.714 25.2387 109.403 25.6671 108.941 26.2472C108.741 26.7727 108.39 27.7196 108.084 28.7735C107.761 29.8856 107.501 31.0738 107.501 32.0001C107.501 33.3917 108.198 35.2993 109.257 37.3487C110.305 39.3773 111.665 41.4705 112.907 43.2091C114.224 45.0534 115.118 47.8971 115.436 50.8214C115.754 53.7475 115.505 56.8448 114.457 59.2032C113.45 61.47 112.533 63.3169 110.261 65.0685C108.017 66.7979 104.479 68.4145 98.2891 70.3575C97.6089 70.571 96.7072 70.6694 95.7705 70.7061C94.8247 70.7432 93.8044 70.7178 92.8701 70.669C92.5263 70.6511 92.1928 70.6283 91.8779 70.6056C92.2397 70.7882 92.6313 70.98 93.0391 71.1671C93.942 71.5812 94.9147 71.9743 95.8145 72.2325C96.7299 72.4951 97.5058 72.5985 98.0459 72.4962L99.499 72.2208L98.5107 73.3214C93.6126 78.778 86.3003 90.6785 88.0273 105.932L88.0898 106.487H73.6924L73.7744 105.917C74.414 101.457 72.9253 98.8678 71.332 97.3829C70.525 96.6309 69.6758 96.1488 69.0283 95.8556C68.7054 95.7094 68.4339 95.6102 68.2461 95.5489C68.1526 95.5184 68.0791 95.4977 68.0312 95.4845C68.0077 95.4779 67.9895 95.4726 67.9785 95.4698C67.9737 95.4686 67.9698 95.4674 67.9678 95.4669H67.9658L67.9443 95.462L67.9229 95.4552C65.351 94.6013 62.1025 94.38 59.1943 94.4347C56.2926 94.4892 53.7809 94.8167 52.708 95.0304L52.6484 95.0421C51.4885 95.2728 48.7353 95.8258 46.543 97.4102C45.4557 98.1962 44.5219 99.2257 43.9834 100.583C43.446 101.938 43.2856 103.663 43.8135 105.871L43.9609 106.487H29.1562L29.125 106.021C28.8491 101.846 27.484 97.4035 25.8467 92.8604C24.2183 88.3422 22.3118 83.7037 21.0186 79.2354C19.7235 74.7605 19.0143 70.3703 19.8115 66.3038C20.6138 62.212 22.9309 58.4999 27.5771 55.379C29.7771 53.9013 31.5865 53.1413 33.2383 52.8331C34.8926 52.5245 36.3516 52.6761 37.8281 52.964C40.7728 53.5381 43.791 54.6385 48.9395 54.004L49.5605 53.9268L49.498 54.5499C49.014 59.3904 50.9523 64.2466 53.8799 67.6622C56.138 70.2965 59.5755 72.0763 64.1104 72.7198C60.282 71.2084 57.5376 69.2151 55.6406 66.9395C53.1592 63.9627 52.1618 60.5445 52.0439 57.1964C51.9263 53.8544 52.6842 50.575 53.7188 47.8409C54.7515 45.1117 56.0738 42.889 57.1201 41.6632C61.2333 36.8448 67.9506 34.9841 72.6826 36.836C74.8175 37.6717 76.5649 39.4721 77.7979 41.1114C78.7745 42.4101 79.4605 43.6545 79.7871 44.3341C79.8171 44.3309 79.8482 44.3267 79.8789 44.3243C80.1312 44.3043 80.4583 44.3026 80.833 44.3165C81.5863 44.3445 82.5775 44.4389 83.6426 44.6046C85.7485 44.9323 88.2542 45.5553 89.7783 46.5714C91.3371 47.6107 92.3787 48.7824 93.0322 49.6974C93.3589 50.1548 93.5895 50.5492 93.7393 50.8321C93.814 50.9733 93.8694 51.0869 93.9062 51.1671C93.9246 51.207 93.9386 51.2392 93.9482 51.2618C93.9531 51.2731 93.9572 51.2825 93.96 51.2892V51.2901L93.9609 51.2921L93.9756 51.3263C93.9864 51.3509 94.0031 51.3881 94.0244 51.4356C94.0671 51.5308 94.1297 51.6692 94.21 51.839C94.3711 52.1798 94.6016 52.6472 94.877 53.1515C95.4399 54.1823 96.1517 55.2912 96.8213 55.8507C97.0799 56.0666 97.5199 56.2103 98.1172 56.2657C98.7009 56.3198 99.3658 56.2843 100.004 56.2081C100.639 56.1323 101.232 56.0176 101.667 55.922C101.883 55.8744 102.06 55.8316 102.182 55.8009C102.242 55.7856 102.29 55.7731 102.321 55.7647C102.335 55.7611 102.346 55.758 102.354 55.756C103.646 55.3212 104.562 54.9129 105.217 54.3468C105.852 53.7971 106.277 53.0651 106.51 51.9015C106.729 50.8028 106.406 49.4211 105.769 47.7393C105.454 46.9091 105.073 46.0292 104.666 45.0987C104.26 44.1718 103.829 43.1956 103.422 42.1876C102.613 40.1846 101.997 38.5116 101.718 36.6358C101.438 34.7543 101.502 32.6967 102.009 29.9102L102.012 29.8917L102.017 29.8731C102.593 27.6844 103.653 25.3179 104.016 24.3643C104.076 23.9493 104.137 23.6098 104.202 23.337C104.269 23.0565 104.346 22.8169 104.447 22.6329C104.545 22.4542 104.716 22.2383 105.005 22.1788ZM86.5674 58.0216C85.1868 58.0029 84.0529 59.1068 84.0342 60.4874C84.0155 61.868 85.1194 63.0019 86.5 63.0206C87.8805 63.0392 89.0145 61.9353 89.0332 60.5548C89.0517 59.1743 87.9479 58.0403 86.5674 58.0216Z" fill="#FFF8EF"/>
</g>
<path d="M81.9999 59.3957C86.449 59.8397 87.3103 54.7564 89.5467 56.5782" stroke="#FFF8EF" stroke-width="2"/>
<g filter="url(#filter1_d_118_48)">
<path d="M91.4073 106C90.3949 101.681 91.4073 95.7778 92.9383 90C94.9794 94.4444 93.9588 99.7778 96 106H91.4073Z" fill="#FFF8EF"/>
<path d="M91.4073 106C90.3949 101.681 91.4073 95.7778 92.9383 90C94.9794 94.4444 93.9588 99.7778 96 106H91.4073Z" stroke="#FFF8EF"/>
</g>
<g filter="url(#filter2_d_118_48)">
<path d="M16.5565 77C15.5716 72.944 16.0153 67.0333 17.0001 64C13.8946 66.6 12.8774 73.61 13.0116 77C14.3574 76.0225 15.0791 76.0987 16.5565 77Z" fill="#FFF8EF"/>
<path d="M16.5565 77C15.5716 72.944 16.0153 67.0333 17.0001 64C13.8946 66.6 12.8774 73.61 13.0116 77C14.3574 76.0225 15.0791 76.0987 16.5565 77Z" stroke="#FFF8EF"/>
</g>
<defs>
<filter id="filter0_d_118_48" x="15.4756" y="22.1642" width="104.089" height="94.3232" filterUnits="userSpaceOnUse" color-interpolation-filters="sRGB">
<feFlood flood-opacity="0" result="BackgroundImageFix"/>
<feColorMatrix in="SourceAlpha" type="matrix" values="0 0 0 0 0 0 0 0 0 0 0 0 0 0 0 0 0 0 127 0" result="hardAlpha"/>
<feOffset dy="6"/>
<feGaussianBlur stdDeviation="2"/>
<feComposite in2="hardAlpha" operator="out"/>
<feColorMatrix type="matrix" values="0 0 0 0 0 0 0 0 0 0 0 0 0 0 0 0 0 0 0.25 0"/>
<feBlend mode="normal" in2="BackgroundImageFix" result="effect1_dropShadow_118_48"/>
<feBlend mode="normal" in="SourceGraphic" in2="effect1_dropShadow_118_48" result="shape"/>
</filter>
<filter id="filter1_d_118_48" x="86.5002" y="88.5261" width="14.1899" height="27.9739" filterUnits="userSpaceOnUse" color-interpolation-filters="sRGB">
<feFlood flood-opacity="0" result="BackgroundImageFix"/>
<feColorMatrix in="SourceAlpha" type="matrix" values="0 0 0 0 0 0 0 0 0 0 0 0 0 0 0 0 0 0 127 0" result="hardAlpha"/>
<feOffset dy="6"/>
<feGaussianBlur stdDeviation="2"/>
<feComposite in2="hardAlpha" operator="out"/>
<feColorMatrix type="matrix" values="0 0 0 0 0 0 0 0 0 0 0 0 0 0 0 0 0 0 0.25 0"/>
<feBlend mode="normal" in2="BackgroundImageFix" result="effect1_dropShadow_118_48"/>
<feBlend mode="normal" in="SourceGraphic" in2="effect1_dropShadow_118_48" result="shape"/>
</filter>
<filter id="filter2_d_118_48" x="8.5" y="62.5001" width="13.5127" height="23.556" filterUnits="userSpaceOnUse" color-interpolation-filters="sRGB">
<feFlood flood-opacity="0" result="BackgroundImageFix"/>
<feColorMatrix in="SourceAlpha" type="matrix" values="0 0 0 0 0 0 0 0 0 0 0 0 0 0 0 0 0 0 127 0" result="hardAlpha"/>
<feOffset dy="4"/>
<feGaussianBlur stdDeviation="2"/>
<feComposite in2="hardAlpha" operator="out"/>
<feColorMatrix type="matrix" values="0 0 0 0 0 0 0 0 0 0 0 0 0 0 0 0 0 0 0.25 0"/>
<feBlend mode="normal" in2="BackgroundImageFix" result="effect1_dropShadow_118_48"/>
<feBlend mode="normal" in="SourceGraphic" in2="effect1_dropShadow_118_48" result="shape"/>
</filter>
</defs>
</svg>
