<svg width="128" height="128" viewBox="0 0 128 128" fill="none" xmlns="http://www.w3.org/2000/svg">
<g filter="url(#filter0_d_119_59)">
<path d="M105.005 22.1787C105.283 22.1217 105.512 22.2445 105.64 22.3301C105.775 22.4212 105.906 22.5453 106.016 22.6533C106.138 22.7736 106.245 22.8848 106.373 23.0049C106.624 23.2397 106.877 23.4317 107.158 23.5254C107.599 23.6723 108.019 23.7209 108.39 23.7432C108.601 23.7558 108.722 23.7575 108.908 23.7676C109.057 23.7756 109.233 23.7888 109.385 23.8311C109.533 23.8724 109.787 23.9777 109.898 24.2637C109.998 24.5206 109.917 24.7698 109.85 24.9248C109.714 25.2386 109.403 25.667 108.941 26.2471C108.741 26.7726 108.39 27.7195 108.084 28.7734C107.761 29.8855 107.501 31.0738 107.501 32C107.501 33.3916 108.198 35.2993 109.257 37.3486C110.305 39.3772 111.665 41.4704 112.907 43.209C114.225 45.0533 115.118 47.8971 115.436 50.8213C115.754 53.7474 115.505 56.8447 114.457 59.2031C113.45 61.4699 112.533 63.3168 110.261 65.0684C108.017 66.7978 104.479 68.4144 98.2891 70.3574C97.609 70.5709 96.7072 70.6693 95.7705 70.7061C94.8247 70.7431 93.8044 70.7177 92.8701 70.669C92.5263 70.651 92.1928 70.6282 91.878 70.6055C92.2397 70.7881 92.6313 70.9799 93.0391 71.167C93.942 71.5812 94.9147 71.9742 95.8145 72.2324C96.7299 72.495 97.5058 72.5985 98.0459 72.4961L99.499 72.2207L98.5108 73.3213C93.6126 78.7779 86.3003 90.6784 88.0274 105.932L88.0899 106.487H73.6924L73.7744 105.917C74.4141 101.457 72.9253 98.8677 71.3321 97.3828C70.525 96.6308 69.6758 96.1487 69.0283 95.8555C68.7054 95.7093 68.4339 95.6101 68.2461 95.5488C68.1526 95.5183 68.0792 95.4977 68.0313 95.4844C68.0077 95.4779 67.9895 95.4725 67.9785 95.4697C67.9737 95.4685 67.9699 95.4673 67.9678 95.4668H67.9658L67.9444 95.4619L67.9229 95.4551C65.351 94.6012 62.1025 94.3799 59.1944 94.4346C56.2926 94.4891 53.7809 94.8166 52.708 95.0303L52.6485 95.042C51.4885 95.2727 48.7353 95.8257 46.543 97.4102C45.4557 98.1961 44.5219 99.2256 43.9834 100.583C43.446 101.938 43.2857 103.663 43.8135 105.871L43.961 106.487H29.1563L29.125 106.021C28.8491 101.846 27.4841 97.4034 25.8467 92.8604C24.2183 88.3421 22.3118 83.7036 21.0186 79.2354C19.7235 74.7604 19.0144 70.3702 19.8115 66.3037C20.6138 62.2119 22.931 58.4998 27.5772 55.3789C29.7771 53.9012 31.5865 53.1413 33.2383 52.833C34.8926 52.5244 36.3516 52.676 37.8282 52.9639C40.7728 53.538 43.791 54.6384 48.9395 54.0039L49.5606 53.9268L49.4981 54.5498C49.0141 59.3904 50.9523 64.2465 53.8799 67.6621C56.138 70.2965 59.5755 72.0762 64.1104 72.7197C60.282 71.2084 57.5376 69.215 55.6407 66.9395C53.1592 63.9626 52.1618 60.5444 52.044 57.1963C51.9264 53.8543 52.6843 50.5749 53.7188 47.8408C54.7515 45.1116 56.0738 42.8889 57.1201 41.6631C61.2334 36.8447 67.9506 34.984 72.6826 36.8359C74.8175 37.6716 76.565 39.472 77.7979 41.1113C78.7746 42.41 79.4605 43.6545 79.7871 44.334C79.8172 44.3308 79.8482 44.3267 79.8789 44.3242C80.1312 44.3042 80.4583 44.3025 80.833 44.3164C81.5864 44.3445 82.5775 44.4388 83.6426 44.6045C85.7486 44.9322 88.2543 45.5552 89.7783 46.5713C91.3372 47.6106 92.3787 48.7824 93.0323 49.6973C93.3589 50.1547 93.5895 50.5491 93.7393 50.832C93.814 50.9732 93.8694 51.0868 93.9063 51.167C93.9246 51.207 93.9386 51.2391 93.9483 51.2617C93.9531 51.273 93.9572 51.2824 93.96 51.2891V51.29L93.961 51.292L93.9756 51.3262C93.9864 51.3509 94.0031 51.388 94.0244 51.4356C94.0671 51.5307 94.1297 51.6691 94.21 51.8389C94.3711 52.1797 94.6016 52.6471 94.877 53.1514C95.44 54.1823 96.1517 55.2911 96.8213 55.8506C97.08 56.0665 97.52 56.2102 98.1172 56.2656C98.701 56.3198 99.3658 56.2842 100.004 56.208C100.639 56.1322 101.232 56.0175 101.667 55.9219C101.884 55.8743 102.06 55.8315 102.182 55.8008C102.242 55.7855 102.29 55.773 102.321 55.7647C102.335 55.761 102.346 55.7579 102.354 55.7559C103.646 55.3211 104.562 54.9128 105.217 54.3467C105.852 53.797 106.277 53.065 106.51 51.9014C106.729 50.8027 106.406 49.421 105.769 47.7393C105.454 46.909 105.073 46.0292 104.666 45.0986C104.26 44.1717 103.829 43.1955 103.422 42.1875C102.613 40.1845 101.997 38.5115 101.718 36.6358C101.438 34.7542 101.502 32.6966 102.009 29.9102L102.012 29.8916L102.017 29.8731C102.593 27.6843 103.653 25.3178 104.016 24.3643C104.076 23.9492 104.137 23.6097 104.202 23.3369C104.269 23.0564 104.346 22.8168 104.447 22.6328C104.545 22.4542 104.716 22.2382 105.005 22.1787ZM86.5674 58.0215C85.1869 58.0028 84.0529 59.1068 84.0342 60.4873C84.0155 61.8679 85.1194 63.0018 86.5 63.0205C87.8805 63.0391 89.0145 61.9352 89.0332 60.5547C89.0517 59.1743 87.9479 58.0402 86.5674 58.0215Z" fill="#162E21"/>
</g>
<path d="M81.9999 59.3957C86.449 59.8397 87.3103 54.7564 89.5467 56.5782" stroke="#162E21" stroke-width="2"/>
<g filter="url(#filter1_d_119_59)">
<path d="M91.4073 106C90.3949 101.681 91.4073 95.7778 92.9383 90C94.9794 94.4444 93.9588 99.7778 96 106H91.4073Z" fill="#162E21"/>
<path d="M91.4073 106C90.3949 101.681 91.4073 95.7778 92.9383 90C94.9794 94.4444 93.9588 99.7778 96 106H91.4073Z" stroke="#162E21"/>
</g>
<g filter="url(#filter2_d_119_59)">
<path d="M16.5565 77C15.5716 72.944 16.0153 67.0333 17.0001 64C13.8946 66.6 12.8774 73.61 13.0116 77C14.3574 76.0225 15.0791 76.0987 16.5565 77Z" fill="#162E21"/>
<path d="M16.5565 77C15.5716 72.944 16.0153 67.0333 17.0001 64C13.8946 66.6 12.8774 73.61 13.0116 77C14.3574 76.0225 15.0791 76.0987 16.5565 77Z" stroke="#162E21"/>
</g>
<defs>
<filter id="filter0_d_119_59" x="15.4756" y="22.1642" width="104.089" height="94.3232" filterUnits="userSpaceOnUse" color-interpolation-filters="sRGB">
<feFlood flood-opacity="0" result="BackgroundImageFix"/>
<feColorMatrix in="SourceAlpha" type="matrix" values="0 0 0 0 0 0 0 0 0 0 0 0 0 0 0 0 0 0 127 0" result="hardAlpha"/>
<feOffset dy="6"/>
<feGaussianBlur stdDeviation="2"/>
<feComposite in2="hardAlpha" operator="out"/>
<feColorMatrix type="matrix" values="0 0 0 0 0 0 0 0 0 0 0 0 0 0 0 0 0 0 0.25 0"/>
<feBlend mode="normal" in2="BackgroundImageFix" result="effect1_dropShadow_119_59"/>
<feBlend mode="normal" in="SourceGraphic" in2="effect1_dropShadow_119_59" result="shape"/>
</filter>
<filter id="filter1_d_119_59" x="86.5002" y="88.5261" width="14.1899" height="27.9739" filterUnits="userSpaceOnUse" color-interpolation-filters="sRGB">
<feFlood flood-opacity="0" result="BackgroundImageFix"/>
<feColorMatrix in="SourceAlpha" type="matrix" values="0 0 0 0 0 0 0 0 0 0 0 0 0 0 0 0 0 0 127 0" result="hardAlpha"/>
<feOffset dy="6"/>
<feGaussianBlur stdDeviation="2"/>
<feComposite in2="hardAlpha" operator="out"/>
<feColorMatrix type="matrix" values="0 0 0 0 0 0 0 0 0 0 0 0 0 0 0 0 0 0 0.25 0"/>
<feBlend mode="normal" in2="BackgroundImageFix" result="effect1_dropShadow_119_59"/>
<feBlend mode="normal" in="SourceGraphic" in2="effect1_dropShadow_119_59" result="shape"/>
</filter>
<filter id="filter2_d_119_59" x="8.5" y="62.5001" width="13.5127" height="23.556" filterUnits="userSpaceOnUse" color-interpolation-filters="sRGB">
<feFlood flood-opacity="0" result="BackgroundImageFix"/>
<feColorMatrix in="SourceAlpha" type="matrix" values="0 0 0 0 0 0 0 0 0 0 0 0 0 0 0 0 0 0 127 0" result="hardAlpha"/>
<feOffset dy="4"/>
<feGaussianBlur stdDeviation="2"/>
<feComposite in2="hardAlpha" operator="out"/>
<feColorMatrix type="matrix" values="0 0 0 0 0 0 0 0 0 0 0 0 0 0 0 0 0 0 0.25 0"/>
<feBlend mode="normal" in2="BackgroundImageFix" result="effect1_dropShadow_119_59"/>
<feBlend mode="normal" in="SourceGraphic" in2="effect1_dropShadow_119_59" result="shape"/>
</filter>
</defs>
</svg>
